Coordinates
version=1
nRows=29
nColumns=22
inDegrees=yes

Units are S.I. units (second, meters, Newtons, ...)
If the header above contains a line with 'inDegrees', this indicates whether rotational values are in degrees (yes) or radians (no).

endheader
time	pelvis_tilt	pelvis_list	pelvis_rotation	pelvis_tx	pelvis_ty	pelvis_tz	hip_flexion_r	hip_adduction_r	hip_rotation_r	knee_angle_r	ankle_angle_r	subtalar_angle_r	hip_flexion_l	hip_adduction_l	hip_rotation_l	knee_angle_l	ankle_angle_l	subtalar_angle_l	lumbar_extension	lumbar_bending	lumbar_rotation
      4.60000000	     -4.82556773	      0.00089009	      3.63096269	     -0.96994752	      1.01675782	      0.35321407	      5.87678497	      1.89230925	     -4.04281206	    -15.41935776	     12.93676440	      0.76173962	     18.87848932	     -3.74830561	     -1.10354638	    -31.78026566	     10.02363137	      7.52948525	     -2.50073166	     -4.68563489	      2.36031681
      4.61000000	     -4.80229759	     -0.10081891	      3.52374069	     -0.97188313	      1.01696207	      0.35292924	      6.01245622	      1.97907299	     -4.12438390	    -15.51194397	     12.74549852	      0.86584628	     18.10726289	     -3.75437566	     -1.18054497	    -31.37658089	      9.91974029	      7.51450034	     -2.33428451	     -4.50113783	      2.21135602
      4.62000000	     -4.78814465	     -0.21567120	      3.41038031	     -0.97374977	      1.01708473	      0.35259472	      6.16783857	      2.07559872	     -4.20553447	    -15.62713172	     12.57269859	      0.94054330	     17.31793159	     -3.78118264	     -1.33797090	    -30.83668414	      9.80268540	      7.53372910	     -2.15851052	     -4.30242054	      2.07238825
      4.63000000	     -4.76111602	     -0.34408487	      3.29056558	     -0.97552638	      1.01715527	      0.35220996	      6.30416357	      2.18445041	     -4.26888310	    -15.73778485	     12.45616586	      0.99291460	     16.48102018	     -3.82665871	     -1.55020024	    -30.15242484	      9.70539037	      7.56438427	     -1.99849743	     -4.09018568	      1.96341328
      4.64000000	     -4.75449102	     -0.48493817	      3.17151192	     -0.97724017	      1.01711481	      0.35178934	      6.46751240	      2.30231597	     -4.32689903	    -15.85909083	     12.34480676	      1.01614295	     15.65743917	     -3.89296939	     -1.83095617	    -29.36696700	      9.64580872	      7.58269255	     -1.81576509	     -3.87023709	      1.84478950
      4.65000000	     -4.75658432	     -0.63674199	      3.05957628	     -0.97889623	      1.01698120	      0.35130693	      6.63992657	      2.42659945	     -4.37491489	    -15.98111669	     12.26803595	      1.01469585	     14.83996718	     -3.97495456	     -2.16156103	    -28.48737077	      9.66690660	      7.55832353	     -1.62670456	     -3.64138643	      1.72247863
      4.66000000	     -4.77515764	     -0.79337651	      2.96203459	     -0.98051312	      1.01674723	      0.35072595	      6.84179082	      2.54587108	     -4.43202743	    -16.12630946	     12.21455656	      0.99825038	     14.05275042	     -4.06115083	     -2.52605870	    -27.54305903	      9.80625891	      7.48236142	     -1.42445819	     -3.40418566	      1.57644320
      4.67000000	     -4.76988261	     -0.95108621	      2.88267682	     -0.98201393	      1.01651289	      0.35009455	      6.99468586	      2.66974714	     -4.45494023	    -16.23802482	     12.20662843	      0.95256548	     13.24125918	     -4.15468626	     -2.92785567	    -26.51534604	     10.00328477	      7.31399508	     -1.24685513	     -3.17681913	      1.43016753
      4.68000000	     -4.77839469	     -1.09729734	      2.83051910	     -0.98347653	      1.01622212	      0.34933283	      7.17529679	      2.77097003	     -4.49543635	    -16.37919780	     12.19792540	      0.88960216	     12.47245898	     -4.23026659	     -3.34510325	    -25.44973240	     10.30004577	      7.09168782	     -1.06162894	     -2.95902160	      1.24815614
      4.69000000	     -4.78555330	     -1.22564538	      2.80780590	     -0.98486761	      1.01592341	      0.34844742	      7.35632113	      2.84669411	     -4.54055102	    -16.53421290	     12.18954904	      0.80037187	     11.72613824	     -4.28086824	     -3.76628207	    -24.34286470	     10.63664134	      6.82183001	     -0.88134406	     -2.76247180	      1.03536088
      4.70000000	     -4.79422263	     -1.33013687	      2.82154382	     -0.98618163	      1.01562748	      0.34741901	      7.53941762	      2.88928339	     -4.60025762	    -16.70317639	     12.17963373	      0.68674499	     11.00729875	     -4.29525811	     -4.16922350	    -23.20017320	     10.98067090	      6.52731348	     -0.70078145	     -2.59289390	      0.78968191
      4.71000000	     -4.80110406	     -1.41005153	      2.87286686	     -0.98742592	      1.01535390	      0.34623855	      7.72137601	      2.89719354	     -4.67599427	    -16.88711631	     12.16425087	      0.55160824	     10.31187083	     -4.26927716	     -4.53245681	    -22.02357305	     11.28605878	      6.21460842	     -0.52438047	     -2.45205790	      0.50995340
      4.72000000	     -4.80571006	     -1.46647730	      2.96068179	     -0.98860284	      1.01510970	      0.34490740	      7.90013003	      2.87133431	     -4.77103207	    -17.08306320	     12.14505479	      0.40181001	      9.63776164	     -4.20329439	     -4.84152226	    -20.81599922	     11.52684378	      5.88822461	     -0.35146051	     -2.33700827	      0.20647079
      4.73000000	     -4.81316374	     -1.50333280	      3.08094695	     -0.98972793	      1.01488534	      0.34343680	      8.08008604	      2.81553694	     -4.88117374	    -17.28643679	     12.12929140	      0.25360664	      8.99253128	     -4.10307111	     -5.09579164	    -19.58758069	     11.69013421	      5.57288532	     -0.17666920	     -2.24489450	     -0.11569428
      4.74000000	     -4.82388967	     -1.51672854	      3.22530762	     -0.99084527	      1.01468602	      0.34185088	      8.26861312	      2.72722493	     -4.99183707	    -17.50658355	     12.10487151	      0.12054315	      8.37848613	     -3.96588354	     -5.28429683	    -18.34904923	     11.77735744	      5.28884196	     -0.00827143	     -2.18164428	     -0.44523326
      4.75000000	     -4.81774514	     -1.53493705	      3.39499874	     -0.99188125	      1.01454284	      0.34014673	      8.41470539	      2.63743542	     -5.12868059	    -17.69159280	     12.11486960	     -0.02883082	      7.77762185	     -3.83020314	     -5.45384983	    -17.11979555	     11.73965046	      4.95078998	      0.14814391	     -2.10928445	     -0.76845338
      4.76000000	     -4.82448400	     -1.52953970	      3.57850742	     -0.99292698	      1.01441627	      0.33836071	      8.57669603	      2.51532436	     -5.25475179	    -17.88735578	     12.11459580	     -0.14474267	      7.22222739	     -3.66112879	     -5.55706858	    -15.91211191	     11.63008939	      4.68020795	      0.31017454	     -2.06999699	     -1.08272830
      4.77000000	     -4.82788036	     -1.51330619	      3.77592658	     -0.99399217	      1.01433638	      0.33650638	      8.72381490	      2.37802637	     -5.37581314	    -18.06415583	     12.11781648	     -0.24652864	      6.70416657	     -3.47637167	     -5.61246781	    -14.75268404	     11.43768574	      4.42030127	      0.45448226	     -2.04291918	     -1.38187291
      4.78000000	     -4.82285145	     -1.49231012	      3.98014551	     -0.99505401	      1.01430675	      0.33459741	      8.84811467	      2.23188724	     -5.50269876	    -18.22004727	     12.12927256	     -0.33977721	      6.21598071	     -3.28388822	     -5.62550074	    -13.65257329	     11.18835732	      4.13481320	      0.57969021	     -2.02286455	     -1.65608868
      4.79000000	     -4.82816109	     -1.46488777	      4.18758802	     -0.99613111	      1.01431207	      0.33265807	      8.96749277	      2.07662783	     -5.61706941	    -18.34900531	     12.13566216	     -0.40975664	      5.78189031	     -3.08273933	     -5.59884976	    -12.62698184	     10.89373614	      3.88731970	      0.70705614	     -2.01439874	     -1.90842202
      4.80000000	     -4.83163807	     -1.43326311	      4.39855890	     -0.99720653	      1.01436915	      0.33069121	      9.06420333	      1.91568633	     -5.73088381	    -18.44533182	     12.14437167	     -0.46429679	      5.38941125	     -2.87709400	     -5.54652684	    -11.68621738	     10.58254019	      3.65450704	      0.82196946	     -2.01210005	     -2.13517870
      4.81000000	     -4.81982622	     -1.40789584	      4.60664710	     -0.99828004	      1.01449059	      0.32871915	      9.13040243	      1.76272965	     -5.83974619	    -18.51899422	     12.15031073	     -0.50708649	      5.01587589	     -2.68109695	     -5.45669147	    -10.81927450	     10.26547639	      3.39885153	      0.90809919	     -2.00237551	     -2.33158041
      4.82000000	     -4.82746263	     -1.36693945	      4.82250751	     -0.99932376	      1.01463898	      0.32673329	      9.18295979	      1.58956934	     -5.96268755	    -18.53741457	     12.15686614	     -0.52855994	      4.70450345	     -2.47272299	     -5.37025659	    -10.04182639	      9.95287396	      3.27987587	      1.01136509	     -2.01711614	     -2.51438566
      4.83000000	     -4.81722090	     -1.33708533	      5.03683502	     -1.00033380	      1.01484673	      0.32475767	      9.19733328	      1.42959393	     -6.09389403	    -18.52610985	     12.15772518	     -0.53746212	      4.40097356	     -2.28368667	     -5.25335255	     -9.32765492	      9.65380264	      3.18513564	      1.09001888	     -2.01967079	     -2.66803892
      4.84000000	     -4.79808644	     -1.31721891	      5.25110326	     -1.00131072	      1.01509507	      0.32279914	      9.18056726	      1.28091753	     -6.23883581	    -18.47936755	     12.15300001	     -0.53217313	      4.11618625	     -2.11382525	     -5.11538888	     -8.67800307	      9.37297709	      3.13829341	      1.15409715	     -2.01353885	     -2.79195645
      4.85000000	     -4.77474225	     -1.31173385	      5.45776797	     -1.00225291	      1.01536468	      0.32087054	      9.14110386	      1.14781652	     -6.39579956	    -18.40044099	     12.14201235	     -0.51318317	      3.85669149	     -1.96959393	     -4.97120500	     -8.09512311	      9.12559667	      3.13900441	      1.21168394	     -1.99216718	     -2.88619971
      4.86000000	     -4.72878170	     -1.31472237	      5.66766887	     -1.00314070	      1.01566800	      0.31896121	      9.05814613	      1.02471560	     -6.58304284	    -18.29179952	     12.13140409	     -0.47672669	      3.59845039	     -1.84400174	     -4.80858310	     -7.57084491	      8.90389455	      3.16817626	      1.24500202	     -1.96378207	     -2.95377783
      4.87000000	     -4.70127081	     -1.33425889	      5.85706295	     -1.00402264	      1.01593715	      0.31710984	      8.98780256	      0.92138697	     -6.75515367	    -18.16507407	     12.10428536	     -0.43298692	      3.38957969	     -1.74340855	     -4.64685942	     -7.10727434	      8.70234431	      3.22781018	      1.29450194	     -1.91776157	     -2.99347518
      4.88000000	     -4.64848224	     -1.36642211	      6.03471591	     -1.00485822	      1.01621683	      0.31528836	      8.88113021	      0.83207795	     -6.96334256	    -18.02005732	     12.08654152	     -0.37092088	      3.18438458	     -1.66616291	     -4.49151916	     -6.71170083	      8.55663623	      3.29193177	      1.31279921	     -1.85611196	     -2.98452962
